<svg height="1150" width="720" xmlns="http://www.w3.org/2000/svg">
<rect height="1150" fill="#555" width="720"></rect>
<text fill="#7f7" font-family="Courier New" font-size="12" xml:space="preserve">
<tspan x="10" y="26"></tspan>
<tspan x="10" y="42">&gt; npmtest-karma-phantomjs-launcher@0.0.1 test /home/travis/build/npmtest/node-npmtest-karma-phan\</tspan>
<tspan x="10" y="58">tomjs-launcher</tspan>
<tspan x="10" y="74">&gt; (set -e; export PORT=$(utility2 shServerPortRandom); utility2 test test.js)</tspan>
<tspan x="10" y="90"></tspan>
<tspan x="10" y="106"></tspan>
<tspan x="10" y="122">[MODE_BUILD=npmTest] - 2017-04-11T21:27:00Z - npm-testing /home/travis/build/npmtest/node-npmtes\</tspan>
<tspan x="10" y="138">t-karma-phantomjs-launcher</tspan>
<tspan x="10" y="154"></tspan>
<tspan x="10" y="170">merging file:///home/travis/build/npmtest/node-npmtest-karma-phantomjs-launcher/tmp/build/test-r\</tspan>
<tspan x="10" y="186">eport.json to test-report</tspan>
<tspan x="10" y="202">&gt; server listening on http-port 59298</tspan>
<tspan x="10" y="218">[node test-case 1 of 7 passed] - testCase_buildApidoc_default</tspan>
<tspan x="10" y="234">[node test-case 2 of 7 passed] - testCase_buildLib_default</tspan>
<tspan x="10" y="250">[node test-case 3 of 7 passed] - testCase_buildReadme_default</tspan>
<tspan x="10" y="266">[node test-case 4 of 7 passed] - testCase_buildTest_default</tspan>
<tspan x="10" y="282"></tspan>
<tspan x="10" y="298">browserTest - created electron entry-page /home/travis/build/npmtest/node-npmtest-karma-phantomj\</tspan>
<tspan x="10" y="314">s-launcher/tmp/electron.15b5ee9a6650.3cca7ff92adee.html</tspan>
<tspan x="10" y="330"></tspan>
<tspan x="10" y="346">[node test-case 5 of 7 passed] - testCase_buildCustomOrg_default</tspan>
<tspan x="10" y="362">Xlib:  extension "RANDR" missing on display ":99.0".</tspan>
<tspan x="10" y="378">merging file:///home/travis/build/npmtest/node-npmtest-karma-phantomjs-launcher/tmp/build/test-r\</tspan>
<tspan x="10" y="394">eport.json to test-report</tspan>
<tspan x="10" y="410">Xlib:  extension "RANDR" missing on display ":99.0".</tspan>
<tspan x="10" y="426">[6516:0411/212703:WARNING:audio_manager.cc(314)] Multiple instances of AudioManager detected</tspan>
<tspan x="10" y="442">[6516:0411/212703:WARNING:audio_manager.cc(275)] Multiple instances of AudioManager detected</tspan>
<tspan x="10" y="458">[6534:0411/212703:ERROR:sandbox_linux.cc(343)] InitializeSandbox() called with multiple threads \</tspan>
<tspan x="10" y="474">in process gpu-process. </tspan>
<tspan x="10" y="490">[6516:0411/212703:ERROR:browser_gpu_channel_host_factory.cc(131)] Failed to create channel.</tspan>
<tspan x="10" y="506"></tspan>
<tspan x="10" y="522">browserTest - opened url http://127.0.0.1:59298?modeTest=1</tspan>
<tspan x="10" y="538"></tspan>
<tspan x="10" y="554">&gt; server listening on http-port 54781</tspan>
<tspan x="10" y="570">[node test-case 6 of 7 passed] - testCase_buildApp_default</tspan>
<tspan x="10" y="586"></tspan>
<tspan x="10" y="602">browserTest - created screenCapture file:///home/travis/build/npmtest/node-npmtest-karma-phantom\</tspan>
<tspan x="10" y="618">js-launcher/tmp/build/screenCapture.npmTest.browser.%2F.png</tspan>
<tspan x="10" y="634"></tspan>
<tspan x="10" y="650">browserTest - created screenCapture file:///home/travis/build/npmtest/node-npmtest-karma-phantom\</tspan>
<tspan x="10" y="666">js-launcher/tmp/build/screenCapture.npmTest.browser.%2F.html</tspan>
<tspan x="10" y="682"></tspan>
<tspan x="10" y="698">browserTest - exit-code 0 - http://127.0.0.1:59298?modeTest=1</tspan>
<tspan x="10" y="714"></tspan>
<tspan x="10" y="730"></tspan>
<tspan x="10" y="746">browserTest - merging test-report from /home/travis/build/npmtest/node-npmtest-karma-phantomjs-l\</tspan>
<tspan x="10" y="762">auncher/tmp/test-report.npmTest.browser.%2F.json</tspan>
<tspan x="10" y="778"></tspan>
<tspan x="10" y="794">[node test-case 7 of 7 passed] - testCase_webpage_default</tspan>
<tspan x="10" y="810">merging file:///home/travis/build/npmtest/node-npmtest-karma-phantomjs-launcher/tmp/build/test-r\</tspan>
<tspan x="10" y="826">eport.json to test-report</tspan>
<tspan x="10" y="842"></tspan>
<tspan x="10" y="858">-------------------------------------------------------</tspan>
<tspan x="10" y="874">| test-report - buildCustomOrg - browser - / - Mozilla/5.0 (X11; Linux x86_64) AppleWebKit/537.3\</tspan>
<tspan x="10" y="890">6 (KHTML, like Gecko) Chrome/53.0.2785.143 Electron/1.4.15 Safari/537.36 - 2017-04-11T21:26:05.5\</tspan>
<tspan x="10" y="906">27Z</tspan>
<tspan x="10" y="922">|   73441 ms            0 failed        7 passed      |</tspan>
<tspan x="10" y="938">-------------------------------------------------------</tspan>
<tspan x="10" y="954">| test-report - buildCustomOrg - node - linux v6.10.2 - 2017-04-11T21:26:03.363Z</tspan>
<tspan x="10" y="970">|   16391 ms            0 failed        7 passed      |</tspan>
<tspan x="10" y="986">-------------------------------------------------------</tspan>
<tspan x="10" y="1002"></tspan>
<tspan x="10" y="1018">created test-report file:///home/travis/build/npmtest/node-npmtest-karma-phantomjs-launcher/tmp/\</tspan>
<tspan x="10" y="1034">build/test-report.html</tspan>
<tspan x="10" y="1050"></tspan>
<tspan x="10" y="1066"></tspan>
<tspan x="10" y="1082">npmTest - 0 failed tests</tspan>
<tspan x="10" y="1098"></tspan>
<tspan x="10" y="1114"></tspan>
<tspan x="10" y="1130">[MODE_BUILD=npmTest] - 2017-04-11T21:27:20Z - EXIT_CODE - 0</tspan>
</text>
</svg>
